{
	"asset":{
		"generator":"Khronos glTF Blender I/O v3.6.28",
		"version":"2.0"
	},
	"scene":0,
	"scenes":[
		{
			"name":"Scene",
			"nodes":[
				0,
				1,
				2,
				3,
				4,
				5,
				6,
				7,
				8,
				9,
				10,
				11,
				12,
				13,
				14,
				15,
				16,
				17,
				18,
				19,
				20,
				21,
				22,
				23
			]
		}
	],
	"nodes":[
		{
			"name":"Circle",
			"scale":[
				0.8759878277778625,
				0.8759878277778625,
				0.8759878277778625
			],
			"translation":[
				0,
				0.19306662678718567,
				0
			]
		},
		{
			"mesh":0,
			"name":"Torus.001",
			"translation":[
				0,
				0.19306662678718567,
				0
			]
		},
		{
			"mesh":1,
			"name":"Sphere.001",
			"scale":[
				0.12170039862394333,
				0.12170039862394333,
				0.12170039862394333
			],
			"translation":[
				0,
				0.19306662678718567,
				-0.8759878277778625
			]
		},
		{
			"mesh":1,
			"name":"Sphere.002",
			"scale":[
				0.12170039862394333,
				0.12170039862394333,
				0.12170039862394333
			],
			"translation":[
				-0.24679432809352875,
				0.19306662678718567,
				-0.8405041694641113
			]
		},
		{
			"mesh":1,
			"name":"Sphere.003",
			"scale":[
				0.12170039862394333,
				0.12170039862394333,
				0.12170039862394333
			],
			"translation":[
				-0.4735947847366333,
				0.19306662678718567,
				-0.7369278073310852
			]
		},
		{
			"mesh":1,
			"name":"Sphere.004",
			"scale":[
				0.12170039862394333,
				0.12170039862394333,
				0.12170039862394333
			],
			"translation":[
				-0.6620273590087891,
				0.19306662678718567,
				-0.5736501216888428
			]
		},
		{
			"mesh":1,
			"name":"Sphere.005",
			"scale":[
				0.12170039862394333,
				0.12170039862394333,
				0.12170039862394333
			],
			"translation":[
				-0.7968265414237976,
				0.19306662678718567,
				-0.36389851570129395
			]
		},
		{
			"mesh":1,
			"name":"Sphere.006",
			"scale":[
				0.12170039862394333,
				0.12170039862394333,
				0.12170039862394333
			],
			"translation":[
				-0.8670715093612671,
				0.19306662678718567,
				-0.12466607242822647
			]
		},
		{
			"mesh":1,
			"name":"Sphere.007",
			"scale":[
				0.12170039862394333,
				0.12170039862394333,
				0.12170039862394333
			],
			"translation":[
				-0.8670715093612671,
				0.19306662678718567,
				0.12466607242822647
			]
		},
		{
			"mesh":1,
			"name":"Sphere.008",
			"scale":[
				0.12170039862394333,
				0.12170039862394333,
				0.12170039862394333
			],
			"translation":[
				-0.7968265414237976,
				0.19306662678718567,
				0.36389851570129395
			]
		},
		{
			"mesh":1,
			"name":"Sphere.009",
			"scale":[
				0.12170039862394333,
				0.12170039862394333,
				0.12170039862394333
			],
			"translation":[
				-0.6620273590087891,
				0.19306662678718567,
				0.5736501216888428
			]
		},
		{
			"mesh":1,
			"name":"Sphere.010",
			"scale":[
				0.12170039862394333,
				0.12170039862394333,
				0.12170039862394333
			],
			"translation":[
				-0.4735947847366333,
				0.19306662678718567,
				0.7369278073310852
			]
		},
		{
			"mesh":1,
			"name":"Sphere.011",
			"scale":[
				0.12170039862394333,
				0.12170039862394333,
				0.12170039862394333
			],
			"translation":[
				-0.24679432809352875,
				0.19306662678718567,
				0.8405041694641113
			]
		},
		{
			"mesh":1,
			"name":"Sphere.012",
			"scale":[
				0.12170039862394333,
				0.12170039862394333,
				0.12170039862394333
			],
			"translation":[
				0,
				0.19306662678718567,
				0.8759878277778625
			]
		},
		{
			"mesh":1,
			"name":"Sphere.013",
			"scale":[
				0.12170039862394333,
				0.12170039862394333,
				0.12170039862394333
			],
			"translation":[
				0.24679432809352875,
				0.19306662678718567,
				0.8405041694641113
			]
		},
		{
			"mesh":1,
			"name":"Sphere.014",
			"scale":[
				0.12170039862394333,
				0.12170039862394333,
				0.12170039862394333
			],
			"translation":[
				0.4735947847366333,
				0.19306662678718567,
				0.7369278073310852
			]
		},
		{
			"mesh":1,
			"name":"Sphere.015",
			"scale":[
				0.12170039862394333,
				0.12170039862394333,
				0.12170039862394333
			],
			"translation":[
				0.6620273590087891,
				0.19306662678718567,
				0.5736501216888428
			]
		},
		{
			"mesh":1,
			"name":"Sphere.016",
			"scale":[
				0.12170039862394333,
				0.12170039862394333,
				0.12170039862394333
			],
			"translation":[
				0.7968265414237976,
				0.19306662678718567,
				0.36389851570129395
			]
		},
		{
			"mesh":1,
			"name":"Sphere.017",
			"scale":[
				0.12170039862394333,
				0.12170039862394333,
				0.12170039862394333
			],
			"translation":[
				0.8670715093612671,
				0.19306662678718567,
				0.12466607242822647
			]
		},
		{
			"mesh":1,
			"name":"Sphere.018",
			"scale":[
				0.12170039862394333,
				0.12170039862394333,
				0.12170039862394333
			],
			"translation":[
				0.8670715093612671,
				0.19306662678718567,
				-0.12466607242822647
			]
		},
		{
			"mesh":1,
			"name":"Sphere.019",
			"scale":[
				0.12170039862394333,
				0.12170039862394333,
				0.12170039862394333
			],
			"translation":[
				0.7968265414237976,
				0.19306662678718567,
				-0.36389851570129395
			]
		},
		{
			"mesh":1,
			"name":"Sphere.020",
			"scale":[
				0.12170039862394333,
				0.12170039862394333,
				0.12170039862394333
			],
			"translation":[
				0.6620273590087891,
				0.19306662678718567,
				-0.5736501216888428
			]
		},
		{
			"mesh":1,
			"name":"Sphere.021",
			"scale":[
				0.12170039862394333,
				0.12170039862394333,
				0.12170039862394333
			],
			"translation":[
				0.4735947847366333,
				0.19306662678718567,
				-0.7369278073310852
			]
		},
		{
			"mesh":1,
			"name":"Sphere.022",
			"scale":[
				0.12170039862394333,
				0.12170039862394333,
				0.12170039862394333
			],
			"translation":[
				0.24679432809352875,
				0.19306662678718567,
				-0.8405041694641113
			]
		}
	],
	"materials":[
		{
			"doubleSided":true,
			"name":"Material.001",
			"pbrMetallicRoughness":{
				"baseColorFactor":[
					0.4385443925857544,
					0.4385443925857544,
					0.4385443925857544,
					1
				],
				"metallicFactor":0.5,
				"roughnessFactor":0.5
			}
		},
		{
			"doubleSided":true,
			"name":"Material.003",
			"pbrMetallicRoughness":{
				"baseColorFactor":[
					0,
					0,
					0,
					1
				],
				"metallicFactor":0,
				"roughnessFactor":0.5
			}
		}
	],
	"meshes":[
		{
			"name":"Torus.001",
			"primitives":[
				{
					"attributes":{
						"POSITION":0,
						"NORMAL":1,
						"TEXCOORD_0":2
					},
					"indices":3,
					"material":0
				}
			]
		},
		{
			"name":"Sphere",
			"primitives":[
				{
					"attributes":{
						"POSITION":4,
						"NORMAL":5,
						"TEXCOORD_0":6
					},
					"indices":7,
					"material":1
				}
			]
		}
	],
	"accessors":[
		{
			"bufferView":0,
			"componentType":5126,
			"count":2304,
			"max":[
				0.8899999856948853,
				0.01000000536441803,
				0.8899999856948853
			],
			"min":[
				-0.8899999856948853,
				-0.01000000536441803,
				-0.8899999856948853
			],
			"type":"VEC3"
		},
		{
			"bufferView":1,
			"componentType":5126,
			"count":2304,
			"type":"VEC3"
		},
		{
			"bufferView":2,
			"componentType":5126,
			"count":2304,
			"type":"VEC2"
		},
		{
			"bufferView":3,
			"componentType":5123,
			"count":3456,
			"type":"SCALAR"
		},
		{
			"bufferView":4,
			"componentType":5126,
			"count":1984,
			"max":[
				0.9999997019767761,
				1,
				0.9999993443489075
			],
			"min":[
				-0.9999990463256836,
				-1,
				-1
			],
			"type":"VEC3"
		},
		{
			"bufferView":5,
			"componentType":5126,
			"count":1984,
			"type":"VEC3"
		},
		{
			"bufferView":6,
			"componentType":5126,
			"count":1984,
			"type":"VEC2"
		},
		{
			"bufferView":7,
			"componentType":5123,
			"count":2880,
			"type":"SCALAR"
		}
	],
	"bufferViews":[
		{
			"buffer":0,
			"byteLength":27648,
			"byteOffset":0,
			"target":34962
		},
		{
			"buffer":0,
			"byteLength":27648,
			"byteOffset":27648,
			"target":34962
		},
		{
			"buffer":0,
			"byteLength":18432,
			"byteOffset":55296,
			"target":34962
		},
		{
			"buffer":0,
			"byteLength":6912,
			"byteOffset":73728,
			"target":34963
		},
		{
			"buffer":0,
			"byteLength":23808,
			"byteOffset":80640,
			"target":34962
		},
		{
			"buffer":0,
			"byteLength":23808,
			"byteOffset":104448,
			"target":34962
		},
		{
			"buffer":0,
			"byteLength":15872,
			"byteOffset":128256,
			"target":34962
		},
		{
			"buffer":0,
			"byteLength":5760,
			"byteOffset":144128,
			"target":34963
		}
	],
	"buffers":[
		{
			"byteLength":149888,
			"uri":"scene.bin"
		}
	]
}
